<?xml version="1.0" encoding="UTF-8"?>
<svg width="130px" height="40px" viewBox="0 0 130 40" version="1.1" xmlns="http://www.w3.org/2000/svg" xmlns:xlink="http://www.w3.org/1999/xlink">
    <!-- Generator: Sketch 47.1 (45422) - http://www.bohemiancoding.com/sketch -->
    <title>ico-appIcon</title>
    <desc>Created with Sketch.</desc>
    <defs>
        <path d="M130,26.2470711 C130,27.0408421 129.340192,27.6702354 128.539841,27.6702354 C127.739491,27.6702354 127.079682,27.0408421 127.079682,26.2470711 C127.079682,25.4669983 127.739491,24.837605 128.539841,24.837605 C129.340192,24.837605 130,25.4669983 130,26.2470711 Z M129.831349,26.2470711 C129.831349,25.5628853 129.255866,25.0019826 128.539841,25.0019826 C127.823816,25.0019826 127.248333,25.5628853 127.248333,26.2607693 C127.248333,26.9449551 127.823816,27.5058578 128.539841,27.5058578 C129.255866,27.5058578 129.831349,26.9449551 129.831349,26.2470711 Z M127.991727,26.9860495 L127.991727,25.4259039 L128.708492,25.4259039 C128.960728,25.4259039 129.199649,25.4669983 129.227758,25.8231499 C129.227758,26.0279009 129.171541,26.0963916 129.016945,26.2196748 C129.171541,26.3155618 129.185595,26.3429581 129.213704,26.6161998 C129.227758,26.8216719 129.199649,26.8490682 129.283975,26.9860495 L129.030999,26.9860495 L129.002891,26.7942756 C128.974782,26.6025017 129.059107,26.3155618 128.73586,26.3155618 L128.20254,26.3155618 L128.20254,26.9860495 L127.991727,26.9860495 Z M95.3482259,24.6732274 L111.298279,24.6732274 C134.941905,24.6732274 134.941905,39.8493205 111.298279,39.8493205 L95.3482259,39.8493205 L95.3482259,24.6732274 Z M57.5091039,40 C50.7135216,40 45.1820789,36.4694856 45.1820789,32.1588984 C45.1820789,27.834613 50.7135216,24.3177968 57.5091039,24.3177968 C64.2765778,24.3177968 69.8228145,27.834613 69.8228145,32.1588984 C69.8228145,36.4694856 64.2765778,40 57.5091039,40 Z M8.21357853,39.8493205 L0,39.8493205 L0,24.6732274 L7.53971596,24.6732274 C7.53971596,24.6732274 13.7598152,24.5088497 13.7598152,28.532497 C13.7598152,28.532497 14.0120513,31.2966367 11.5555227,32.1041058 C11.5555227,32.1041058 14.6156429,32.8978768 14.6156429,35.7168091 C14.6156429,38.5357413 11.7655962,39.8493205 8.21357853,39.8493205 Z M128.427407,13.6296457 L129.312083,14.1227786 C129.312083,14.1227786 128.17739,15.6894128 126.399902,17.3742836 C128.261716,19.7909232 129.775133,21.7584081 129.775133,21.7584081 L128.244703,21.7584081 L125.516706,18.1716593 C125.212691,18.4319239 124.895362,18.6900256 124.566197,18.9394759 C121.786421,21.0331279 119.638346,22.2104466 117.630073,22.2104466 C115.608485,22.2104466 111.944034,20.5955085 111.944034,16.9417108 C111.944034,13.2879132 114.456779,11.5633899 116.899993,9.97584802 C117.493229,9.58725352 118.02581,9.25345157 118.507351,8.95569734 C118.507351,8.95569734 116.254239,6.44533362 116.254239,4.2283984 C116.254239,1.99776504 118.247718,0.218449227 120.466805,0.218449227 C122.699206,0.218449227 124.327275,2.23063336 124.327275,4.29688908 C124.327275,6.24707112 122.390013,7.80000721 120.181282,9.32843084 C121.259758,10.7097797 123.567608,13.6988573 125.649111,16.400274 C126.524911,15.6036192 127.45027,14.6844021 128.427407,13.6296457 Z M62.1425564,21.7584081 L71.1143228,0 L80.1282518,21.7584081 L78.738364,21.7584081 L75.8321005,14.7521719 L66.4387077,14.7521719 L63.5605526,21.7584081 L62.1425564,21.7584081 Z M26.7325944,0.711582135 L31.6330769,0.711582135 C45.4483693,0.711582135 45.757562,21.7584081 31.30983,21.7584081 L26.7325944,21.7584081 L26.7325944,0.711582135 Z M56.2175956,21.7584081 L50.7837927,21.7584081 L50.7837927,0.711582135 L55.6983294,0.711582135 C55.6983294,0.711582135 60.977536,0.711582135 61.2016637,5.82963844 C61.2016637,5.82963844 61.5108565,9.18207707 58.8146665,10.6052413 C58.8146665,10.6052413 63.0975032,11.4538048 63.0975032,15.8739771 C63.0975032,20.3352439 59.4611603,21.7584081 56.2175956,21.7584081 Z M5.61576803,21.7584081 L0.182704782,21.7584081 L0.182704782,0.711582135 L5.11055602,0.711582135 C5.11055602,0.711582135 10.3897626,0.711582135 10.6005758,5.82963844 C10.6005758,5.82963844 10.9230831,9.18207707 8.21357853,10.6052413 C8.21357853,10.6052413 12.5237841,11.4538048 12.5237841,15.8739771 C12.5237841,20.3352439 8.85933268,21.7584081 5.61576803,21.7584081 Z M128.722546,25.6039797 L128.20254,25.6039797 L128.20254,26.137486 L128.722546,26.137486 C128.862348,26.137486 128.988836,26.1100898 129.016945,25.9046177 C129.045053,25.6313759 128.848294,25.6039797 128.722546,25.6039797 Z M107.886064,35.2517934 L109.557036,35.2517934 C118.627182,35.2517934 118.627182,29.3947587 109.557036,29.3947587 L107.886064,29.3947587 L107.886064,35.2517934 Z M70.0898446,24.6732274 L78.471334,24.6732274 L85.8993559,32.7334992 C86.3061884,33.1574204 86.7270751,33.0478353 86.4467305,32.4047439 C86.1656463,31.7479543 85.9555728,30.3795826 85.9555728,30.3795826 L85.9555728,24.6732274 L94.1824658,24.6732274 L94.1824658,39.8493205 L85.9274643,39.8493205 L78.4291713,32.1041058 C78.0223388,31.6657655 77.6007124,31.7753506 77.8817967,32.4321402 C78.1488267,33.0752316 78.2886292,34.4580224 78.2886292,34.4580224 L78.2886292,39.8493205 L70.0898446,39.8493205 L70.0898446,24.6732274 Z M57.5091039,29.1618903 C55.1923777,29.1618903 53.2972779,30.5028658 53.2972779,32.1588984 C53.2972779,33.8005119 55.1923777,35.1559064 57.5091039,35.1559064 C59.8258302,35.1559064 61.7076154,33.8005119 61.7076154,32.1588984 C61.7076154,30.5028658 59.8258302,29.1618903 57.5091039,29.1618903 Z M15.5986981,24.6732274 L36.1400414,24.6732274 L38.5684617,28.9701164 L40.8851879,24.6732274 L49.4360676,24.6732274 L42.1914901,33.3902887 L42.1914901,39.8493205 L34.8477934,39.8493205 L34.8477934,33.1711186 L28.0522111,25.2615263 L28.0522111,28.7920407 L22.3380636,28.7920407 L22.3380636,30.2836956 L27.5891618,30.2836956 L27.5891618,34.1840597 L22.3380636,34.1840597 L22.3380636,35.7305072 L28.3332954,35.7305072 L28.3332954,39.8493205 L15.5986981,39.8493205 L15.5986981,24.6732274 Z M5.6860391,30.6124509 L7.16025218,30.6124509 C8.73284475,30.6124509 8.73284475,28.3133268 7.16025218,28.3133268 L5.6860391,28.3133268 L5.6860391,30.6124509 Z M5.6860391,33.7731156 L5.6860391,36.2777117 L7.37106539,36.2777117 C9.5753579,36.2777117 9.5753579,33.7731156 7.37106539,33.7731156 L5.6860391,33.7731156 Z M124.762216,17.1803468 L119.265539,9.95349843 C117.279457,11.2980787 116.700275,11.6455787 115.720919,12.370859 C114.681646,13.16463 113.221488,14.3412278 113.221488,16.5855593 C113.221488,18.8298908 115.047056,20.8550521 117.433314,20.8550521 C119.188611,20.8550521 121.625908,19.842111 124.762216,17.1803468 Z M119.446025,8.37677084 C120.446833,7.75602898 121.184309,7.26938467 121.786421,6.65080567 C122.797585,5.61046826 122.965496,4.95367867 122.965496,4.29688908 C122.965496,3.65379763 122.530555,1.56014563 120.312208,1.56014563 C118.079807,1.56014563 117.573856,3.48941999 117.573856,4.46126672 C117.573856,5.33938935 118.140462,6.61980462 119.446025,8.37677084 Z M90.9255866,9.57932302 L104.095125,9.57932302 L104.095125,0.711582135 L105.34521,0.711582135 L105.34521,21.7584081 L104.095125,21.7584081 L104.095125,10.8929022 L90.9255866,10.8929022 L90.9255866,21.7584081 L89.6755013,21.7584081 L89.6755013,0.711582135 L90.9255866,0.711582135 L90.9255866,9.57932302 Z M75.8742631,0.711582135 L88.3137219,0.711582135 L88.3137219,1.90187809 L82.7120081,1.90187809 L82.7120081,21.7584081 L81.4619228,21.7584081 L81.4619228,1.90187809 L75.8742631,1.90187809 L75.8742631,0.711582135 Z M75.3261488,13.5337587 L71.1143228,3.33874049 L66.9306052,13.5337587 L75.3261488,13.5337587 Z M28.178699,2.02516131 L28.178699,20.4037345 L31.4363179,20.4037345 C43.6235405,20.4037345 43.8055056,2.02516131 31.4363179,2.02516131 L28.178699,2.02516131 Z M14.1947561,0.711582135 L24.4861392,0.711582135 L24.4861392,2.02516131 L15.5143729,2.02516131 L15.5143729,9.67520998 L24.2331634,9.67520998 L24.2331634,10.8929022 L15.5143729,10.8929022 L15.5143729,20.4585271 L24.4861392,20.4585271 L24.4861392,21.7584081 L14.1947561,21.7584081 L14.1947561,0.711582135 Z M51.9917154,1.99776504 L51.9917154,10.277207 L55.6140041,10.277207 C61.3281517,10.277207 61.3140975,1.99776504 55.6140041,1.99776504 L51.9917154,1.99776504 Z M1.38988779,1.99776504 L1.38988779,10.277207 L5.01217653,10.277207 C10.7270638,10.277207 10.7130095,1.99776504 5.01217653,1.99776504 L1.38988779,1.99776504 Z M52.0198238,11.6318806 L52.0198238,20.444829 L56.6525366,20.444829 C63.4200105,20.444829 63.6027153,11.6318806 56.8352414,11.6318806 L52.0198238,11.6318806 Z M1.43205044,11.6318806 L1.43205044,20.444829 L6.05144867,20.444829 C12.8329768,20.444829 13.0156815,11.6318806 6.23341375,11.6318806 L1.43205044,11.6318806 Z" id="path-1"></path>
    </defs>
    <g id="Beyond.com-Desktop" stroke="none" stroke-width="1" fill="none" fill-rule="evenodd">
        <g id="Concept-1:-Brands" transform="translate(-275.000000, -440.000000)">
            <g id="bbb" transform="translate(165.000000, 370.000000)">
                <g id="ico-appIcon" transform="translate(110.000000, 70.000000)">
                    <g id="icon">
                        <rect id="Bound" x="0" y="0" width="130" height="40"></rect>
                        <mask id="mask-2" fill="white">
                            <use xlink:href="#path-1"></use>
                        </mask>
                        <use id="shape" fill="#000000" xlink:href="#path-1"></use>
                        <g id="🌈-colors-/-purple-/-main" fill="#273691">
                            <rect id="color" x="0" y="0" width="130" height="40"></rect>
                        </g>
                    </g>
                </g>
            </g>
        </g>
    </g>
</svg>